<svg width="96" height="96" viewBox="0 0 96 96" fill="none" xmlns="http://www.w3.org/2000/svg">
  <rect width="96" height="96" rx="28" fill="url(#bg)"/>
  <path d="M48 12C31.5 12 18 25.5 18 42V52C18 60.8 21.8 69.1 28.4 74.8L48 90L67.6 74.8C74.2 69.1 78 60.8 78 52V42C78 25.5 64.5 12 48 12Z" fill="#F0D67B" stroke="#8F6F2A" stroke-width="4" stroke-linejoin="round"/>
  <path d="M38 14L30 4" stroke="#2C694E" stroke-width="5" stroke-linecap="round"/>
  <path d="M58 14L66 4" stroke="#2C694E" stroke-width="5" stroke-linecap="round"/>
  <circle cx="37" cy="41" r="5" fill="#283036"/>
  <circle cx="59" cy="41" r="5" fill="#283036"/>
  <circle cx="34" cy="53" r="4" fill="#F4B3A0"/>
  <circle cx="62" cy="53" r="4" fill="#F4B3A0"/>
  <path d="M40 62C42.5 58.8 45.2 57.2 48 57.2C50.8 57.2 53.5 58.8 56 62" stroke="#7A5524" stroke-width="4" stroke-linecap="round" stroke-linejoin="round"/>
  <circle cx="71" cy="24" r="7" fill="#AEEECB"/>
  <path d="M71 19V29" stroke="#2C694E" stroke-width="3" stroke-linecap="round"/>
  <path d="M66 24H76" stroke="#2C694E" stroke-width="3" stroke-linecap="round"/>
  <defs>
    <linearGradient id="bg" x1="10" y1="8" x2="82" y2="90" gradientUnits="userSpaceOnUse">
      <stop stop-color="#003366"/>
      <stop offset="1" stop-color="#2C694E"/>
    </linearGradient>
  </defs>
</svg>
