<svg width="96" height="96" viewBox="0 0 96 96" fill="none" xmlns="http://www.w3.org/2000/svg">
  <rect width="96" height="96" rx="28" fill="url(#bg)"/>
  <path d="M48 12C31.5 12 18 25.5 18 42V52C18 60.8 21.8 69.1 28.4 74.8L48 90L67.6 74.8C74.2 69.1 78 60.8 78 52V42C78 25.5 64.5 12 48 12Z" fill="#F0D67B" stroke="#8F6F2A" stroke-width="4" stroke-linejoin="round"/>
  <path d="M38 14L30 4" stroke="#B78103" stroke-width="5" stroke-linecap="round"/>
  <path d="M58 14L66 4" stroke="#B78103" stroke-width="5" stroke-linecap="round"/>
  <path d="M31 35L42 39" stroke="#283036" stroke-width="4" stroke-linecap="round"/>
  <path d="M65 35L54 39" stroke="#283036" stroke-width="4" stroke-linecap="round"/>
  <circle cx="37" cy="43" r="5" fill="#283036"/>
  <circle cx="59" cy="43" r="5" fill="#283036"/>
  <circle cx="34" cy="55" r="4" fill="#F4B3A0"/>
  <circle cx="62" cy="55" r="4" fill="#F4B3A0"/>
  <path d="M40 65C43 62.5 45.7 61.5 48 61.5C50.3 61.5 53 62.5 56 65" stroke="#7A5524" stroke-width="4" stroke-linecap="round"/>
  <path d="M73 20L81 34H65L73 20Z" fill="#FFF1C2" stroke="#B78103" stroke-width="3" stroke-linejoin="round"/>
  <path d="M73 26V30" stroke="#8A5A00" stroke-width="3" stroke-linecap="round"/>
  <circle cx="73" cy="33" r="1.5" fill="#8A5A00"/>
  <defs>
    <linearGradient id="bg" x1="10" y1="8" x2="84" y2="92" gradientUnits="userSpaceOnUse">
      <stop stop-color="#8A5A00"/>
      <stop offset="1" stop-color="#003366"/>
    </linearGradient>
  </defs>
</svg>
